<?xml version="1.0" encoding="UTF-8" standalone="no"?>
<!-- Created with Inkscape (http://www.inkscape.org/) -->

<svg
   xmlns:dc="http://purl.org/dc/elements/1.1/"
   xmlns:cc="http://creativecommons.org/ns#"
   xmlns:rdf="http://www.w3.org/1999/02/22-rdf-syntax-ns#"
   xmlns:svg="http://www.w3.org/2000/svg"
   xmlns="http://www.w3.org/2000/svg"
   xmlns:sodipodi="http://sodipodi.sourceforge.net/DTD/sodipodi-0.dtd"
   xmlns:inkscape="http://www.inkscape.org/namespaces/inkscape"
   width="204.735"
   height="49.1115"
   id="svg2"
   version="1.1"
   inkscape:version="0.48.3.1 r9886"
   sodipodi:docname="logos.svg"
   inkscape:export-filename="/home/nelle/Projects/jhepc/_static/logos/logo_1.png"
   inkscape:export-xdpi="91.435272"
   inkscape:export-ydpi="91.435272">
  <defs
     id="defs4">
    <filter
       inkscape:collect="always"
       id="filter3847">
      <feGaussianBlur
         inkscape:collect="always"
         stdDeviation="0.49360956"
         id="feGaussianBlur3849" />
    </filter>
    <filter
       color-interpolation-filters="sRGB"
       inkscape:collect="always"
       id="filter3847-1">
      <feGaussianBlur
         inkscape:collect="always"
         stdDeviation="0.49360956"
         id="feGaussianBlur3849-5" />
    </filter>
    <filter
       color-interpolation-filters="sRGB"
       inkscape:collect="always"
       id="filter3847-1-5">
      <feGaussianBlur
         inkscape:collect="always"
         stdDeviation="0.49360956"
         id="feGaussianBlur3849-5-3" />
    </filter>
    <filter
       color-interpolation-filters="sRGB"
       inkscape:collect="always"
       id="filter3847-1-5-4">
      <feGaussianBlur
         inkscape:collect="always"
         stdDeviation="0.49360956"
         id="feGaussianBlur3849-5-3-6" />
    </filter>
    <filter
       color-interpolation-filters="sRGB"
       inkscape:collect="always"
       id="filter3847-3">
      <feGaussianBlur
         inkscape:collect="always"
         stdDeviation="0.49360956"
         id="feGaussianBlur3849-1" />
    </filter>
    <filter
       inkscape:collect="always"
       id="filter4553"
       x="-0.0048962028"
       width="1.0097924"
       y="-0.62757799"
       height="2.255156">
      <feGaussianBlur
         inkscape:collect="always"
         stdDeviation="0.41675101"
         id="feGaussianBlur4555" />
    </filter>
  </defs>
  <sodipodi:namedview
     id="base"
     pagecolor="#ffffff"
     bordercolor="#666666"
     borderopacity="1.0"
     inkscape:pageopacity="0.0"
     inkscape:pageshadow="2"
     inkscape:zoom="0.9899495"
     inkscape:cx="-286.14974"
     inkscape:cy="196.75714"
     inkscape:document-units="px"
     inkscape:current-layer="layer1"
     showgrid="false"
     fit-margin-top="0"
     fit-margin-left="0"
     fit-margin-right="0"
     fit-margin-bottom="0"
     inkscape:window-width="1315"
     inkscape:window-height="744"
     inkscape:window-x="51"
     inkscape:window-y="24"
     inkscape:window-maximized="1" />
  <metadata
     id="metadata7">
    <rdf:RDF>
      <cc:Work
         rdf:about="">
        <dc:format>image/svg+xml</dc:format>
        <dc:type
           rdf:resource="http://purl.org/dc/dcmitype/StillImage" />
        <dc:title></dc:title>
      </cc:Work>
    </rdf:RDF>
  </metadata>
  <g
     inkscape:label="Layer 1"
     inkscape:groupmode="layer"
     id="layer1"
     transform="translate(-91.243882,-118.7055)">
    <g
       id="g3887"
       transform="translate(-120,-377.14285)">
      <g
         id="g3861">
        <text
           xml:space="preserve"
           style="font-size:40px;font-style:normal;font-variant:normal;font-weight:bold;font-stretch:condensed;line-height:125%;letter-spacing:0px;word-spacing:0px;fill:#333333;fill-opacity:1;stroke:none;font-family:PT Sans Narrow;-inkscape-font-specification:PT Sans Narrow Bold Condensed"
           x="91.923882"
           y="147.2655"
           id="text2985"
           sodipodi:linespacing="125%"><tspan
             sodipodi:role="line"
             id="tspan2987"
             x="91.923882"
             y="147.2655">JOHN HUNTER</tspan></text>
        <text
           xml:space="preserve"
           style="font-size:14.94456577px;font-style:normal;font-variant:normal;font-weight:normal;font-stretch:normal;line-height:125%;letter-spacing:0px;word-spacing:0px;fill:#777777;fill-opacity:1;stroke:none;font-family:PT Sans Caption;-inkscape-font-specification:PT Sans Caption"
           x="96.357765"
           y="153.65349"
           id="text2989"
           sodipodi:linespacing="125%"
           transform="scale(0.93403533,1.0706233)"><tspan
             sodipodi:role="line"
             id="tspan2991"
             x="96.357765"
             y="153.65349">Excellence in plotting contest</tspan></text>
      </g>
      <g
         transform="matrix(1.2530849,0,0,1.2530849,-78.025939,-33.353072)"
         id="g3878">
        <g
           id="g3814"
           style="filter:url(#filter3847)"
           transform="translate(0,-4.0557453)">
          <path
             transform="translate(67.954374,112.49345)"
             d="m 244.96199,30.297409 c 0,2.022358 -1.63945,3.661803 -3.6618,3.661803 -2.02236,0 -3.66181,-1.639445 -3.66181,-3.661803 0,-2.022358 1.63945,-3.661803 3.66181,-3.661803 2.02235,0 3.6618,1.639445 3.6618,3.661803 z"
             sodipodi:ry="3.661803"
             sodipodi:rx="3.661803"
             sodipodi:cy="30.297409"
             sodipodi:cx="241.30019"
             id="path2990-4"
             style="fill:#333333;fill-opacity:1;stroke:#33333f;stroke-width:0.2;stroke-miterlimit:4;stroke-opacity:0.94117647;stroke-dasharray:none"
             sodipodi:type="arc" />
          <path
             transform="translate(79.075874,112.48658)"
             d="m 244.96199,30.297409 c 0,2.022358 -1.63945,3.661803 -3.6618,3.661803 -2.02236,0 -3.66181,-1.639445 -3.66181,-3.661803 0,-2.022358 1.63945,-3.661803 3.66181,-3.661803 2.02235,0 3.6618,1.639445 3.6618,3.661803 z"
             sodipodi:ry="3.661803"
             sodipodi:rx="3.661803"
             sodipodi:cy="30.297409"
             sodipodi:cx="241.30019"
             id="path2990-2-3"
             style="fill:#333333;fill-opacity:1;stroke:#33333f;stroke-width:0.2;stroke-miterlimit:4;stroke-opacity:0.94117647;stroke-dasharray:none"
             sodipodi:type="arc" />
          <path
             transform="translate(73.518024,121.5526)"
             d="m 244.96199,30.297409 c 0,2.022358 -1.63945,3.661803 -3.6618,3.661803 -2.02236,0 -3.66181,-1.639445 -3.66181,-3.661803 0,-2.022358 1.63945,-3.661803 3.66181,-3.661803 2.02235,0 3.6618,1.639445 3.6618,3.661803 z"
             sodipodi:ry="3.661803"
             sodipodi:rx="3.661803"
             sodipodi:cy="30.297409"
             sodipodi:cx="241.30019"
             id="path2990-6-1"
             style="fill:#333333;fill-opacity:1;stroke:#33333f;stroke-width:0.2;stroke-miterlimit:4;stroke-opacity:0.94117647;stroke-dasharray:none"
             sodipodi:type="arc" />
        </g>
        <path
           sodipodi:type="arc"
           style="fill:#ee9816;fill-opacity:1;stroke:none"
           id="path2990"
           sodipodi:cx="241.30019"
           sodipodi:cy="30.297409"
           sodipodi:rx="3.661803"
           sodipodi:ry="3.661803"
           d="m 244.96199,30.297409 c 0,2.022358 -1.63945,3.661803 -3.6618,3.661803 -2.02236,0 -3.66181,-1.639445 -3.66181,-3.661803 0,-2.022358 1.63945,-3.661803 3.66181,-3.661803 2.02235,0 3.6618,1.639445 3.6618,3.661803 z"
           transform="translate(67.788412,108.26255)" />
        <path
           sodipodi:type="arc"
           style="fill:#0f9e6f;fill-opacity:1;stroke:none"
           id="path2990-2"
           sodipodi:cx="241.30019"
           sodipodi:cy="30.297409"
           sodipodi:rx="3.661803"
           sodipodi:ry="3.661803"
           d="m 244.96199,30.297409 c 0,2.022358 -1.63945,3.661803 -3.6618,3.661803 -2.02236,0 -3.66181,-1.639445 -3.66181,-3.661803 0,-2.022358 1.63945,-3.661803 3.66181,-3.661803 2.02235,0 3.6618,1.639445 3.6618,3.661803 z"
           transform="translate(78.909916,108.25568)" />
        <path
           sodipodi:type="arc"
           style="fill:#19599b;fill-opacity:1;stroke:none"
           id="path2990-6"
           sodipodi:cx="241.30019"
           sodipodi:cy="30.297409"
           sodipodi:rx="3.661803"
           sodipodi:ry="3.661803"
           d="m 244.96199,30.297409 c 0,2.022358 -1.63945,3.661803 -3.6618,3.661803 -2.02236,0 -3.66181,-1.639445 -3.66181,-3.661803 0,-2.022358 1.63945,-3.661803 3.66181,-3.661803 2.02235,0 3.6618,1.639445 3.6618,3.661803 z"
           transform="translate(73.352069,117.32171)" />
      </g>
    </g>
    <path
       sodipodi:type="arc"
       style="fill:#333333;fill-opacity:1;stroke:#33333f;stroke-width:0.2;stroke-miterlimit:4;stroke-opacity:0.94117647;stroke-dasharray:none;filter:url(#filter3847-1)"
       id="path2990-4-6"
       sodipodi:cx="241.30019"
       sodipodi:cy="30.297409"
       sodipodi:rx="3.661803"
       sodipodi:ry="3.661803"
       d="m 244.96199,30.297409 a 3.661803,3.661803 0 1 1 -7.32361,0 3.661803,3.661803 0 1 1 7.32361,0 z"
       transform="matrix(1.2530849,0,0,1.2530849,-123.17848,24.048774)" />
    <path
       sodipodi:type="arc"
       style="fill:#333333;fill-opacity:1;stroke:#33333f;stroke-width:0.2;stroke-miterlimit:4;stroke-opacity:0.94117647;stroke-dasharray:none;filter:url(#filter3847-1)"
       id="path2990-6-1-5"
       sodipodi:cx="241.30019"
       sodipodi:cy="30.297409"
       sodipodi:rx="3.661803"
       sodipodi:ry="3.661803"
       d="m 244.96199,30.297409 a 3.661803,3.661803 0 1 1 -7.32361,0 3.661803,3.661803 0 1 1 7.32361,0 z"
       transform="matrix(1.2530849,0,0,1.2530849,-116.20675,35.400658)" />
    <path
       sodipodi:type="arc"
       style="fill:#ee9816;fill-opacity:1;stroke:none"
       id="path2990-7"
       sodipodi:cx="241.30019"
       sodipodi:cy="30.297409"
       sodipodi:rx="3.661803"
       sodipodi:ry="3.661803"
       d="m 244.96199,30.297409 a 3.661803,3.661803 0 1 1 -7.32361,0 3.661803,3.661803 0 1 1 7.32361,0 z"
       transform="matrix(1.2530849,0,0,1.2530849,-123.38644,23.829287)" />
    <path
       sodipodi:type="arc"
       style="fill:#19599b;fill-opacity:1;stroke:none"
       id="path2990-6-5"
       sodipodi:cx="241.30019"
       sodipodi:cy="30.297409"
       sodipodi:rx="3.661803"
       sodipodi:ry="3.661803"
       d="m 244.96199,30.297409 a 3.661803,3.661803 0 1 1 -7.32361,0 3.661803,3.661803 0 1 1 7.32361,0 z"
       transform="matrix(1.2530849,0,0,1.2530849,-116.41471,35.181183)" />
    <g
       id="g4221"
       transform="translate(-122.73353,-48.992398)">
      <g
         id="g4087">
        <g
           id="g4062"
           transform="translate(-146.8052,-126.87312)">
          <path
             transform="matrix(1.2530849,0,0,1.2530849,-109.2423,24.040165)"
             d="m 244.96199,30.297409 c 0,2.022358 -1.63945,3.661803 -3.6618,3.661803 -2.02236,0 -3.66181,-1.639445 -3.66181,-3.661803 0,-2.022358 1.63945,-3.661803 3.66181,-3.661803 2.02235,0 3.6618,1.639445 3.6618,3.661803 z"
             sodipodi:ry="3.661803"
             sodipodi:rx="3.661803"
             sodipodi:cy="30.297409"
             sodipodi:cx="241.30019"
             id="path2990-2-3-8"
             style="fill:#333333;fill-opacity:1;stroke:#33333f;stroke-width:0.2;stroke-miterlimit:4;stroke-opacity:0.94117647;stroke-dasharray:none;filter:url(#filter3847-1)"
             sodipodi:type="arc" />
          <path
             transform="matrix(1.2530849,0,0,1.2530849,-109.45026,23.820678)"
             d="m 244.96199,30.297409 c 0,2.022358 -1.63945,3.661803 -3.6618,3.661803 -2.02236,0 -3.66181,-1.639445 -3.66181,-3.661803 0,-2.022358 1.63945,-3.661803 3.66181,-3.661803 2.02235,0 3.6618,1.639445 3.6618,3.661803 z"
             sodipodi:ry="3.661803"
             sodipodi:rx="3.661803"
             sodipodi:cy="30.297409"
             sodipodi:cx="241.30019"
             id="path2990-2-5"
             style="fill:#0f9e6f;fill-opacity:1;stroke:none"
             sodipodi:type="arc" />
        </g>
        <text
           xml:space="preserve"
           style="font-size:40px;font-style:normal;font-variant:normal;font-weight:bold;font-stretch:condensed;line-height:125%;letter-spacing:0px;word-spacing:0px;fill:#333333;fill-opacity:1;stroke:none;font-family:PT Sans Narrow;-inkscape-font-specification:PT Sans Narrow Bold Condensed"
           x="51.741669"
           y="-50.90773"
           id="text2985-0-0"
           sodipodi:linespacing="125%"><tspan
             sodipodi:role="line"
             id="tspan2987-6-2"
             x="51.741669"
             y="-50.90773">HUNTER</tspan></text>
        <text
           xml:space="preserve"
           style="font-size:40px;font-style:normal;font-variant:normal;font-weight:bold;font-stretch:condensed;line-height:125%;letter-spacing:0px;word-spacing:0px;fill:#333333;fill-opacity:1;stroke:none;font-family:PT Sans Narrow;-inkscape-font-specification:PT Sans Narrow Bold Condensed"
           x="-35.697433"
           y="-50.867729"
           id="text2985-0-2"
           sodipodi:linespacing="125%"><tspan
             sodipodi:role="line"
             id="tspan2987-6-8"
             x="-35.697433"
             y="-50.867729">JOHN</tspan></text>
      </g>
      <text
         transform="scale(0.94078416,1.0629431)"
         sodipodi:linespacing="125%"
         id="text2989-5-6"
         y="-33.533146"
         x="-40.006821"
         style="font-size:15.0525465px;font-style:normal;font-variant:normal;font-weight:normal;font-stretch:normal;line-height:125%;letter-spacing:0px;word-spacing:0px;fill:#777777;fill-opacity:1;stroke:none;font-family:PT Sans Caption;-inkscape-font-specification:PT Sans Caption"
         xml:space="preserve"><tspan
           y="-33.533146"
           x="-40.006821"
           id="tspan2991-7-6"
           sodipodi:role="line">Excellence in plotting contest</tspan></text>
    </g>
    <g
       id="g4211"
       transform="translate(-91.518212,-42.400398)">
      <path
         transform="matrix(1.2530849,0,0,1.2530849,-287.26282,-42.27581)"
         d="m 244.96199,30.297409 c 0,2.022358 -1.63945,3.661803 -3.6618,3.661803 -2.02236,0 -3.66181,-1.639445 -3.66181,-3.661803 0,-2.022358 1.63945,-3.661803 3.66181,-3.661803 2.02235,0 3.6618,1.639445 3.6618,3.661803 z"
         sodipodi:ry="3.661803"
         sodipodi:rx="3.661803"
         sodipodi:cy="30.297409"
         sodipodi:cx="241.30019"
         id="path2990-2-3-8-4"
         style="fill:#333333;fill-opacity:1;stroke:#33333f;stroke-width:0.2;stroke-miterlimit:4;stroke-opacity:0.94117647;stroke-dasharray:none;filter:url(#filter3847-1-5)"
         sodipodi:type="arc" />
      <path
         transform="matrix(1.2530849,0,0,1.2530849,-287.47078,-42.495297)"
         d="m 244.96199,30.297409 c 0,2.022358 -1.63945,3.661803 -3.6618,3.661803 -2.02236,0 -3.66181,-1.639445 -3.66181,-3.661803 0,-2.022358 1.63945,-3.661803 3.66181,-3.661803 2.02235,0 3.6618,1.639445 3.6618,3.661803 z"
         sodipodi:ry="3.661803"
         sodipodi:rx="3.661803"
         sodipodi:cy="30.297409"
         sodipodi:cx="241.30019"
         id="path2990-2-5-3"
         style="fill:#19599b;fill-opacity:1;stroke:none"
         sodipodi:type="arc" />
      <text
         sodipodi:linespacing="125%"
         id="text2985-0-0-2"
         y="9.649415"
         x="20.526352"
         style="font-size:40px;font-style:normal;font-variant:normal;font-weight:bold;font-stretch:condensed;line-height:125%;letter-spacing:0px;word-spacing:0px;fill:#333333;fill-opacity:1;stroke:none;font-family:PT Sans Narrow;-inkscape-font-specification:PT Sans Narrow Bold Condensed"
         xml:space="preserve"><tspan
           y="9.649415"
           x="20.526352"
           id="tspan2987-6-2-9"
           sodipodi:role="line">HUNTER</tspan></text>
      <text
         sodipodi:linespacing="125%"
         id="text2985-0-2-6"
         y="9.6894159"
         x="-66.91275"
         style="font-size:40px;font-style:normal;font-variant:normal;font-weight:bold;font-stretch:condensed;line-height:125%;letter-spacing:0px;word-spacing:0px;fill:#333333;fill-opacity:1;stroke:none;font-family:PT Sans Narrow;-inkscape-font-specification:PT Sans Narrow Bold Condensed"
         xml:space="preserve"><tspan
           y="9.6894159"
           x="-66.91275"
           id="tspan2987-6-8-4"
           sodipodi:role="line">JOHN</tspan></text>
      <text
         transform="scale(0.94078414,1.0629431)"
         sodipodi:linespacing="125%"
         id="text2989-5-6-4"
         y="23.438049"
         x="-73.186928"
         style="font-size:15.0525465px;font-style:normal;font-variant:normal;font-weight:normal;font-stretch:normal;line-height:125%;letter-spacing:0px;word-spacing:0px;fill:#777777;fill-opacity:1;stroke:none;font-family:PT Sans Caption;-inkscape-font-specification:PT Sans Caption"
         xml:space="preserve"><tspan
           y="23.438049"
           x="-73.186928"
           id="tspan2991-7-6-9"
           sodipodi:role="line">Excellence in plotting contest</tspan></text>
    </g>
    <g
       id="g4201"
       transform="translate(-102.12481,-48.992398)">
      <path
         transform="matrix(1.2530849,0,0,1.2530849,-276.65621,31.465324)"
         d="m 244.96199,30.297409 c 0,2.022358 -1.63945,3.661803 -3.6618,3.661803 -2.02236,0 -3.66181,-1.639445 -3.66181,-3.661803 0,-2.022358 1.63945,-3.661803 3.66181,-3.661803 2.02235,0 3.6618,1.639445 3.6618,3.661803 z"
         sodipodi:ry="3.661803"
         sodipodi:rx="3.661803"
         sodipodi:cy="30.297409"
         sodipodi:cx="241.30019"
         id="path2990-2-3-8-4-5"
         style="fill:#333333;fill-opacity:1;stroke:#33333f;stroke-width:0.2;stroke-miterlimit:4;stroke-opacity:0.94117647;stroke-dasharray:none;filter:url(#filter3847-1-5-4)"
         sodipodi:type="arc" />
      <path
         transform="matrix(1.2530849,0,0,1.2530849,-276.86417,31.245834)"
         d="m 244.96199,30.297409 c 0,2.022358 -1.63945,3.661803 -3.6618,3.661803 -2.02236,0 -3.66181,-1.639445 -3.66181,-3.661803 0,-2.022358 1.63945,-3.661803 3.66181,-3.661803 2.02235,0 3.6618,1.639445 3.6618,3.661803 z"
         sodipodi:ry="3.661803"
         sodipodi:rx="3.661803"
         sodipodi:cy="30.297409"
         sodipodi:cx="241.30019"
         id="path2990-2-5-3-1"
         style="fill:#ee9816;fill-opacity:1;stroke:none"
         sodipodi:type="arc" />
      <text
         sodipodi:linespacing="125%"
         id="text2985-0-0-2-3"
         y="83.390541"
         x="31.132957"
         style="font-size:40px;font-style:normal;font-variant:normal;font-weight:bold;font-stretch:condensed;line-height:125%;letter-spacing:0px;word-spacing:0px;fill:#333333;fill-opacity:1;stroke:none;font-family:PT Sans Narrow;-inkscape-font-specification:PT Sans Narrow Bold Condensed"
         xml:space="preserve"><tspan
           y="83.390541"
           x="31.132957"
           id="tspan2987-6-2-9-9"
           sodipodi:role="line">HUNTER</tspan></text>
      <text
         sodipodi:linespacing="125%"
         id="text2985-0-2-6-8"
         y="83.43055"
         x="-56.306145"
         style="font-size:40px;font-style:normal;font-variant:normal;font-weight:bold;font-stretch:condensed;line-height:125%;letter-spacing:0px;word-spacing:0px;fill:#333333;fill-opacity:1;stroke:none;font-family:PT Sans Narrow;-inkscape-font-specification:PT Sans Narrow Bold Condensed"
         xml:space="preserve"><tspan
           y="83.43055"
           x="-56.306145"
           id="tspan2987-6-8-4-9"
           sodipodi:role="line">JOHN</tspan></text>
      <text
         transform="scale(0.94078414,1.0629431)"
         sodipodi:linespacing="125%"
         id="text2989-5-6-4-7"
         y="92.812538"
         x="-61.912716"
         style="font-size:15.0525465px;font-style:normal;font-variant:normal;font-weight:normal;font-stretch:normal;line-height:125%;letter-spacing:0px;word-spacing:0px;fill:#777777;fill-opacity:1;stroke:none;font-family:PT Sans Caption;-inkscape-font-specification:PT Sans Caption"
         xml:space="preserve"><tspan
           y="92.812538"
           x="-61.912716"
           id="tspan2991-7-6-9-5"
           sodipodi:role="line">Excellence in plotting contest</tspan></text>
    </g>
  </g>
</svg>
